<?xml version="1.0" encoding="utf-8"?>
<svg version="1.1" xmlns:xlink="http://www.w3.org/1999/xlink" width="45px" height="28px" xmlns="http://www.w3.org/2000/svg">
  <defs>
    <filter x="335px" y="245px" width="45px" height="28px" filterUnits="userSpaceOnUse" id="filter15">
      <feOffset dx="5" dy="5" in="SourceAlpha" result="shadowOffsetInner" />
      <feGaussianBlur stdDeviation="2.5" in="shadowOffsetInner" result="shadowGaussian" />
      <feComposite in2="shadowGaussian" operator="atop" in="SourceAlpha" result="shadowComposite" />
      <feColorMatrix type="matrix" values="0 0 0 0 0  0 0 0 0 0  0 0 0 0 0  0 0 0 0.349019607843137 0  " in="shadowComposite" />
    </filter>
    <g id="widget16">
      <path d="M 336 254  A 8 8 0 0 1 344 246 L 361 246  A 8 8 0 0 1 369 254 A 8 8 0 0 1 361 262 L 344 262  A 8 8 0 0 1 336 254 Z " fill-rule="nonzero" fill="#cc9933" stroke="none" />
      <path d="M 335.5 254  A 8.5 8.5 0 0 1 344 245.5 L 361 245.5  A 8.5 8.5 0 0 1 369.5 254 A 8.5 8.5 0 0 1 361 262.5 L 344 262.5  A 8.5 8.5 0 0 1 335.5 254 Z " stroke-width="1" stroke-dasharray="3,1" stroke="#009dd9" fill="none" stroke-dashoffset="0.5" />
    </g>
  </defs>
  <g transform="matrix(1 0 0 1 -335 -245 )">
    <use xlink:href="#widget16" filter="url(#filter15)" />
    <use xlink:href="#widget16" />
  </g>
</svg>