<?xml version="1.0" encoding="utf-8"?>
<svg version="1.1" xmlns:xlink="http://www.w3.org/1999/xlink" width="385px" height="180px" xmlns="http://www.w3.org/2000/svg">
  <defs>
    <filter x="0px" y="0px" width="385px" height="180px" filterUnits="userSpaceOnUse" id="filter17">
      <feOffset dx="5" dy="5" in="SourceAlpha" result="shadowOffsetInner" />
      <feGaussianBlur stdDeviation="2.5" in="shadowOffsetInner" result="shadowGaussian" />
      <feComposite in2="shadowGaussian" operator="atop" in="SourceAlpha" result="shadowComposite" />
      <feColorMatrix type="matrix" values="0 0 0 0 0  0 0 0 0 0  0 0 0 0 0  0 0 0 0.349019607843137 0  " in="shadowComposite" />
    </filter>
    <g id="widget18">
      <path d="M 1 10  A 9 9 0 0 1 10 1 L 365 1  A 9 9 0 0 1 374 10 L 374 160  A 9 9 0 0 1 365 169 L 10 169  A 9 9 0 0 1 1 160 L 1 10  Z " fill-rule="nonzero" fill="#cc9933" stroke="none" />
      <path d="M 0.5 10  A 9.5 9.5 0 0 1 10 0.5 L 365 0.5  A 9.5 9.5 0 0 1 374.5 10 L 374.5 160  A 9.5 9.5 0 0 1 365 169.5 L 10 169.5  A 9.5 9.5 0 0 1 0.5 160 L 0.5 10  Z " stroke-width="1" stroke-dasharray="3,1" stroke="#009dd9" fill="none" stroke-dashoffset="0.5" />
    </g>
  </defs>
  <g>
    <use xlink:href="#widget18" filter="url(#filter17)" />
    <use xlink:href="#widget18" />
  </g>
</svg>