<?xml version="1.0" encoding="utf-8"?>
<svg version="1.1" xmlns:xlink="http://www.w3.org/1999/xlink" width="66px" height="28px" xmlns="http://www.w3.org/2000/svg">
  <defs>
    <filter x="54px" y="245px" width="66px" height="28px" filterUnits="userSpaceOnUse" id="filter11">
      <feOffset dx="5" dy="5" in="SourceAlpha" result="shadowOffsetInner" />
      <feGaussianBlur stdDeviation="2.5" in="shadowOffsetInner" result="shadowGaussian" />
      <feComposite in2="shadowGaussian" operator="atop" in="SourceAlpha" result="shadowComposite" />
      <feColorMatrix type="matrix" values="0 0 0 0 0  0 0 0 0 0  0 0 0 0 0  0 0 0 0.349019607843137 0  " in="shadowComposite" />
    </filter>
    <g id="widget12">
      <path d="M 55 254  A 8 8 0 0 1 63 246 L 101 246  A 8 8 0 0 1 109 254 A 8 8 0 0 1 101 262 L 63 262  A 8 8 0 0 1 55 254 Z " fill-rule="nonzero" fill="#cc9933" stroke="none" />
      <path d="M 54.5 254  A 8.5 8.5 0 0 1 63 245.5 L 101 245.5  A 8.5 8.5 0 0 1 109.5 254 A 8.5 8.5 0 0 1 101 262.5 L 63 262.5  A 8.5 8.5 0 0 1 54.5 254 Z " stroke-width="1" stroke-dasharray="3,1" stroke="#009dd9" fill="none" stroke-dashoffset="0.5" />
    </g>
  </defs>
  <g transform="matrix(1 0 0 1 -54 -245 )">
    <use xlink:href="#widget12" filter="url(#filter11)" />
    <use xlink:href="#widget12" />
  </g>
</svg>