<?xml version="1.0" encoding="utf-8"?>
<svg version="1.1" xmlns:xlink="http://www.w3.org/1999/xlink" width="57px" height="28px" xmlns="http://www.w3.org/2000/svg">
  <defs>
    <filter x="282px" y="246px" width="57px" height="28px" filterUnits="userSpaceOnUse" id="filter13">
      <feOffset dx="5" dy="5" in="SourceAlpha" result="shadowOffsetInner" />
      <feGaussianBlur stdDeviation="2.5" in="shadowOffsetInner" result="shadowGaussian" />
      <feComposite in2="shadowGaussian" operator="atop" in="SourceAlpha" result="shadowComposite" />
      <feColorMatrix type="matrix" values="0 0 0 0 0  0 0 0 0 0  0 0 0 0 0  0 0 0 0.349019607843137 0  " in="shadowComposite" />
    </filter>
    <g id="widget14">
      <path d="M 283 255  A 8 8 0 0 1 291 247 L 320 247  A 8 8 0 0 1 328 255 A 8 8 0 0 1 320 263 L 291 263  A 8 8 0 0 1 283 255 Z " fill-rule="nonzero" fill="#cc9933" stroke="none" />
      <path d="M 282.5 255  A 8.5 8.5 0 0 1 291 246.5 L 320 246.5  A 8.5 8.5 0 0 1 328.5 255 A 8.5 8.5 0 0 1 320 263.5 L 291 263.5  A 8.5 8.5 0 0 1 282.5 255 Z " stroke-width="1" stroke-dasharray="3,1" stroke="#009dd9" fill="none" stroke-dashoffset="0.5" />
    </g>
  </defs>
  <g transform="matrix(1 0 0 1 -282 -246 )">
    <use xlink:href="#widget14" filter="url(#filter13)" />
    <use xlink:href="#widget14" />
  </g>
</svg>