<?xml version="1.0" encoding="utf-8"?>
<svg version="1.1" xmlns:xlink="http://www.w3.org/1999/xlink" width="10px" height="15px" preserveAspectRatio="xMidYMin meet" viewBox="616 2224  8 15" xmlns="http://www.w3.org/2000/svg">
  <path d="M 620 2239  L 620 2234  A 5 5 0 0 0 615 2229 L 475 2229  A 5 5 0 0 1 470 2224 L 470 2048  A 3 3 0 0 0 473 2045 A 3 3 0 0 0 470 2042 L 470 1938  A 3 3 0 0 0 473 1935 A 3 3 0 0 0 470 1932 L 470 1918  A 3 3 0 0 0 473 1915 A 3 3 0 0 0 470 1912 L 470 1868  A 3 3 0 0 0 473 1865 A 3 3 0 0 0 470 1862 L 470 1847  " stroke-width="2" stroke-dasharray="6,2" stroke="#0099cc" fill="none" />
  <path d="M 465.707106781187 1852.10710678119  L 470 1847.81421356237  L 474.292893218813 1852.10710678119  L 475.707106781187 1850.69289321881  L 470.707106781187 1845.69289321881  L 470 1844.98578643763  L 469.292893218813 1845.69289321881  L 464.292893218813 1850.69289321881  L 465.707106781187 1852.10710678119  Z " fill-rule="nonzero" fill="#0099cc" stroke="none" />
</svg>