<?xml version="1.0" encoding="utf-8"?>
<svg version="1.1" xmlns:xlink="http://www.w3.org/1999/xlink" width="81px" height="23px" xmlns="http://www.w3.org/2000/svg">
  <g transform="matrix(1 0 0 1 -45 -355 )">
    <path d="M 46 360  A 4 4 0 0 1 50 356 L 121 356  A 4 4 0 0 1 125 360 L 125 373  A 4 4 0 0 1 121 377 L 50 377  A 4 4 0 0 1 46 373 L 46 360  Z " fill-rule="nonzero" fill="#ffffff" stroke="none" />
    <path d="M 45.5 360  A 4.5 4.5 0 0 1 50 355.5 L 121 355.5  A 4.5 4.5 0 0 1 125.5 360 L 125.5 373  A 4.5 4.5 0 0 1 121 377.5 L 50 377.5  A 4.5 4.5 0 0 1 45.5 373 L 45.5 360  Z " stroke-width="1" stroke-dasharray="3,1" stroke="#ff9933" fill="none" stroke-dashoffset="0.5" />
  </g>
</svg>