<?xml version="1.0" encoding="utf-8"?>
<svg version="1.1" xmlns:xlink="http://www.w3.org/1999/xlink" width="80px" height="80px" xmlns="http://www.w3.org/2000/svg">
  <g transform="matrix(1 0 0 1 -275 -95 )">
    <path d="M 277 98  A 1 1 0 0 1 278 97 L 352 97  A 1 1 0 0 1 353 98 L 353 172  A 1 1 0 0 1 352 173 L 278 173  A 1 1 0 0 1 277 172 L 277 98  Z " fill-rule="nonzero" fill="#ffffff" stroke="none" />
    <path d="M 276 98  A 2 2 0 0 1 278 96 L 352 96  A 2 2 0 0 1 354 98 L 354 172  A 2 2 0 0 1 352 174 L 278 174  A 2 2 0 0 1 276 172 L 276 98  Z " stroke-width="2" stroke-dasharray="6,2" stroke="#999999" fill="none" stroke-opacity="0.576470588235294" />
  </g>
</svg>