<?xml version="1.0" encoding="utf-8"?>
<svg version="1.1" xmlns:xlink="http://www.w3.org/1999/xlink" width="349px" height="41px" xmlns="http://www.w3.org/2000/svg">
  <defs>
    <filter x="9px" y="51px" width="349px" height="41px" filterUnits="userSpaceOnUse" id="filter21">
      <feOffset dx="5" dy="5" in="SourceAlpha" result="shadowOffsetInner" />
      <feGaussianBlur stdDeviation="2.5" in="shadowOffsetInner" result="shadowGaussian" />
      <feComposite in2="shadowGaussian" operator="atop" in="SourceAlpha" result="shadowComposite" />
      <feColorMatrix type="matrix" values="0 0 0 0 0  0 0 0 0 0  0 0 0 0 0  0 0 0 0.349019607843137 0  " in="shadowComposite" />
    </filter>
    <g id="widget22">
      <path d="M 10 61  A 9 9 0 0 1 19 52 L 338 52  A 9 9 0 0 1 347 61 L 347 72  A 9 9 0 0 1 338 81 L 19 81  A 9 9 0 0 1 10 72 L 10 61  Z " fill-rule="nonzero" fill="#cc9933" stroke="none" />
      <path d="M 9.5 61  A 9.5 9.5 0 0 1 19 51.5 L 338 51.5  A 9.5 9.5 0 0 1 347.5 61 L 347.5 72  A 9.5 9.5 0 0 1 338 81.5 L 19 81.5  A 9.5 9.5 0 0 1 9.5 72 L 9.5 61  Z " stroke-width="1" stroke-dasharray="3,1" stroke="#009dd9" fill="none" stroke-dashoffset="0.5" />
    </g>
  </defs>
  <g transform="matrix(1 0 0 1 -9 -51 )">
    <use xlink:href="#widget22" filter="url(#filter21)" />
    <use xlink:href="#widget22" />
  </g>
</svg>