<?xml version="1.0" encoding="utf-8"?>
<svg version="1.1" xmlns:xlink="http://www.w3.org/1999/xlink" width="110px" height="85px" xmlns="http://www.w3.org/2000/svg">
  <defs>
    <filter x="530px" y="642px" width="110px" height="85px" filterUnits="userSpaceOnUse" id="filter29">
      <feOffset dx="5" dy="5" in="SourceAlpha" result="shadowOffsetInner" />
      <feGaussianBlur stdDeviation="2.5" in="shadowOffsetInner" result="shadowGaussian" />
      <feComposite in2="shadowGaussian" operator="atop" in="SourceAlpha" result="shadowComposite" />
      <feColorMatrix type="matrix" values="0 0 0 0 0  0 0 0 0 0  0 0 0 0 0  0 0 0 0.349019607843137 0  " in="shadowComposite" />
    </filter>
    <g id="widget30">
      <path d="M 531 652  A 9 9 0 0 1 540 643 L 620 643  A 9 9 0 0 1 629 652 L 629 707  A 9 9 0 0 1 620 716 L 540 716  A 9 9 0 0 1 531 707 L 531 652  Z " fill-rule="nonzero" fill="#cc9933" stroke="none" />
      <path d="M 530.5 652  A 9.5 9.5 0 0 1 540 642.5 L 620 642.5  A 9.5 9.5 0 0 1 629.5 652 L 629.5 707  A 9.5 9.5 0 0 1 620 716.5 L 540 716.5  A 9.5 9.5 0 0 1 530.5 707 L 530.5 652  Z " stroke-width="1" stroke-dasharray="3,1" stroke="#009dd9" fill="none" stroke-dashoffset="0.5" />
    </g>
  </defs>
  <g transform="matrix(1 0 0 1 -530 -642 )">
    <use xlink:href="#widget30" filter="url(#filter29)" />
    <use xlink:href="#widget30" />
  </g>
</svg>