<?xml version="1.0" encoding="utf-8"?>
<svg version="1.1" xmlns:xlink="http://www.w3.org/1999/xlink" width="70px" height="40px" xmlns="http://www.w3.org/2000/svg">
  <defs>
    <filter x="500px" y="252px" width="70px" height="40px" filterUnits="userSpaceOnUse" id="filter1">
      <feOffset dx="5" dy="5" in="SourceAlpha" result="shadowOffsetInner" />
      <feGaussianBlur stdDeviation="2.5" in="shadowOffsetInner" result="shadowGaussian" />
      <feComposite in2="shadowGaussian" operator="atop" in="SourceAlpha" result="shadowComposite" />
      <feColorMatrix type="matrix" values="0 0 0 0 0  0 0 0 0 0  0 0 0 0 0  0 0 0 0.349019607843137 0  " in="shadowComposite" />
    </filter>
    <g id="widget2">
      <path d="M 501 262  A 9 9 0 0 1 510 253 L 550 253  A 9 9 0 0 1 559 262 L 559 272  A 9 9 0 0 1 550 281 L 510 281  A 9 9 0 0 1 501 272 L 501 262  Z " fill-rule="nonzero" fill="#cc9933" stroke="none" />
      <path d="M 500.5 262  A 9.5 9.5 0 0 1 510 252.5 L 550 252.5  A 9.5 9.5 0 0 1 559.5 262 L 559.5 272  A 9.5 9.5 0 0 1 550 281.5 L 510 281.5  A 9.5 9.5 0 0 1 500.5 272 L 500.5 262  Z " stroke-width="1" stroke-dasharray="3,1" stroke="#009dd9" fill="none" stroke-dashoffset="0.5" />
    </g>
  </defs>
  <g transform="matrix(1 0 0 1 -500 -252 )">
    <use xlink:href="#widget2" filter="url(#filter1)" />
    <use xlink:href="#widget2" />
  </g>
</svg>