<?xml version="1.0" encoding="utf-8"?>
<svg version="1.1" xmlns:xlink="http://www.w3.org/1999/xlink" width="12px" height="12px" viewBox="786 500  12 12" xmlns="http://www.w3.org/2000/svg">
  <path d="M 792 500  C 795.36 500  798 502.64  798 506  C 798 509.36  795.36 512  792 512  C 788.64 512  786 509.36  786 506  C 786 502.64  788.64 500  792 500  Z " fill-rule="nonzero" fill="#ffffff" stroke="none" fill-opacity="0" />
  <path d="M 792 500.5  C 795.08 500.5  797.5 502.92  797.5 506  C 797.5 509.08  795.08 511.5  792 511.5  C 788.92 511.5  786.5 509.08  786.5 506  C 786.5 502.92  788.92 500.5  792 500.5  Z " stroke-width="1" stroke="#797979" fill="none" />
  <path d="M 792 509  C 790.32 509  789 507.68  789 506  C 789 504.32  790.32 503  792 503  C 793.68 503  795 504.32  795 506  C 795 507.68  793.68 509  792 509  " fill-rule="nonzero" fill="#797979" stroke="none" />
</svg>