<?xml version="1.0" encoding="utf-8"?>
<svg version="1.1" xmlns:xlink="http://www.w3.org/1999/xlink" width="12px" height="12px" viewBox="795 570  12 12" xmlns="http://www.w3.org/2000/svg">
  <path d="M 801 570  C 804.36 570  807 572.64  807 576  C 807 579.36  804.36 582  801 582  C 797.64 582  795 579.36  795 576  C 795 572.64  797.64 570  801 570  Z " fill-rule="nonzero" fill="#ffffff" stroke="none" fill-opacity="0" />
  <path d="M 801 570.5  C 804.08 570.5  806.5 572.92  806.5 576  C 806.5 579.08  804.08 581.5  801 581.5  C 797.92 581.5  795.5 579.08  795.5 576  C 795.5 572.92  797.92 570.5  801 570.5  Z " stroke-width="1" stroke="#797979" fill="none" />
  <path d="M 801 579  C 799.32 579  798 577.68  798 576  C 798 574.32  799.32 573  801 573  C 802.68 573  804 574.32  804 576  C 804 577.68  802.68 579  801 579  " fill-rule="nonzero" fill="#797979" stroke="none" />
</svg>