<?xml version="1.0" encoding="utf-8"?>
<svg version="1.1" xmlns:xlink="http://www.w3.org/1999/xlink" width="375px" height="103px" xmlns="http://www.w3.org/2000/svg">
  <defs>
    <filter x="5px" y="102px" width="375px" height="103px" filterUnits="userSpaceOnUse" id="filter27">
      <feOffset dx="5" dy="5" in="SourceAlpha" result="shadowOffsetInner" />
      <feGaussianBlur stdDeviation="2.5" in="shadowOffsetInner" result="shadowGaussian" />
      <feComposite in2="shadowGaussian" operator="atop" in="SourceAlpha" result="shadowComposite" />
      <feColorMatrix type="matrix" values="0 0 0 0 0  0 0 0 0 0  0 0 0 0 0  0 0 0 0.349019607843137 0  " in="shadowComposite" />
    </filter>
    <g id="widget28">
      <path d="M 6 112  A 9 9 0 0 1 15 103 L 360 103  A 9 9 0 0 1 369 112 L 369 185  A 9 9 0 0 1 360 194 L 15 194  A 9 9 0 0 1 6 185 L 6 112  Z " fill-rule="nonzero" fill="#cc9933" stroke="none" />
      <path d="M 5.5 112  A 9.5 9.5 0 0 1 15 102.5 L 360 102.5  A 9.5 9.5 0 0 1 369.5 112 L 369.5 185  A 9.5 9.5 0 0 1 360 194.5 L 15 194.5  A 9.5 9.5 0 0 1 5.5 185 L 5.5 112  Z " stroke-width="1" stroke-dasharray="3,1" stroke="#009dd9" fill="none" stroke-dashoffset="0.5" />
    </g>
  </defs>
  <g transform="matrix(1 0 0 1 -5 -102 )">
    <use xlink:href="#widget28" filter="url(#filter27)" />
    <use xlink:href="#widget28" />
  </g>
</svg>