<?xml version="1.0" encoding="utf-8"?>
<svg version="1.1" xmlns:xlink="http://www.w3.org/1999/xlink" width="359px" height="88px" xmlns="http://www.w3.org/2000/svg">
  <g transform="matrix(1 0 0 1 -2 0 )">
    <path d="M 3 10  A 9 9 0 0 1 12 1 L 351 1  A 9 9 0 0 1 360 10 L 360 78  A 9 9 0 0 1 351 87 L 12 87  A 9 9 0 0 1 3 78 L 3 10  Z " fill-rule="nonzero" fill="#ffffff" stroke="none" />
    <path d="M 2.5 10  A 9.5 9.5 0 0 1 12 0.5 L 351 0.5  A 9.5 9.5 0 0 1 360.5 10 L 360.5 78  A 9.5 9.5 0 0 1 351 87.5 L 12 87.5  A 9.5 9.5 0 0 1 2.5 78 L 2.5 10  Z " stroke-width="1" stroke-dasharray="3,1" stroke="#cccccc" fill="none" stroke-opacity="0.709803921568627" stroke-dashoffset="0.5" />
  </g>
</svg>