<?xml version="1.0" encoding="utf-8"?>
<svg version="1.1" xmlns:xlink="http://www.w3.org/1999/xlink" width="364px" height="45px" xmlns="http://www.w3.org/2000/svg">
  <g transform="matrix(1 0 0 1 0 -108 )">
    <path d="M 1 118  A 9 9 0 0 1 10 109 L 354 109  A 9 9 0 0 1 363 118 L 363 143  A 9 9 0 0 1 354 152 L 10 152  A 9 9 0 0 1 1 143 L 1 118  Z " fill-rule="nonzero" fill="#ffffff" stroke="none" />
    <path d="M 0.5 118  A 9.5 9.5 0 0 1 10 108.5 L 354 108.5  A 9.5 9.5 0 0 1 363.5 118 L 363.5 143  A 9.5 9.5 0 0 1 354 152.5 L 10 152.5  A 9.5 9.5 0 0 1 0.5 143 L 0.5 118  Z " stroke-width="1" stroke-dasharray="3,1" stroke="#cccccc" fill="none" stroke-opacity="0.709803921568627" stroke-dashoffset="0.5" />
  </g>
</svg>