<?xml version="1.0" encoding="utf-8"?>
<svg version="1.1" xmlns:xlink="http://www.w3.org/1999/xlink" width="103px" height="23px" xmlns="http://www.w3.org/2000/svg">
  <g transform="matrix(1 0 0 1 -45 -322 )">
    <path d="M 46 327  A 4 4 0 0 1 50 323 L 143 323  A 4 4 0 0 1 147 327 L 147 340  A 4 4 0 0 1 143 344 L 50 344  A 4 4 0 0 1 46 340 L 46 327  Z " fill-rule="nonzero" fill="#ffffff" stroke="none" />
    <path d="M 45.5 327  A 4.5 4.5 0 0 1 50 322.5 L 143 322.5  A 4.5 4.5 0 0 1 147.5 327 L 147.5 340  A 4.5 4.5 0 0 1 143 344.5 L 50 344.5  A 4.5 4.5 0 0 1 45.5 340 L 45.5 327  Z " stroke-width="1" stroke-dasharray="3,1" stroke="#cc0000" fill="none" stroke-dashoffset="0.5" />
  </g>
</svg>