<?xml version="1.0" encoding="utf-8"?>
<svg version="1.1" xmlns:xlink="http://www.w3.org/1999/xlink" width="70px" height="23px" xmlns="http://www.w3.org/2000/svg">
  <g transform="matrix(1 0 0 1 -45 -384 )">
    <path d="M 46 389  A 4 4 0 0 1 50 385 L 110 385  A 4 4 0 0 1 114 389 L 114 402  A 4 4 0 0 1 110 406 L 50 406  A 4 4 0 0 1 46 402 L 46 389  Z " fill-rule="nonzero" fill="#ffffff" stroke="none" />
    <path d="M 45.5 389  A 4.5 4.5 0 0 1 50 384.5 L 110 384.5  A 4.5 4.5 0 0 1 114.5 389 L 114.5 402  A 4.5 4.5 0 0 1 110 406.5 L 50 406.5  A 4.5 4.5 0 0 1 45.5 402 L 45.5 389  Z " stroke-width="1" stroke-dasharray="3,1" stroke="#ff9933" fill="none" stroke-dashoffset="0.5" />
  </g>
</svg>