<?xml version="1.0" encoding="utf-8"?>
<svg version="1.1" xmlns:xlink="http://www.w3.org/1999/xlink" width="97px" height="23px" xmlns="http://www.w3.org/2000/svg">
  <g transform="matrix(1 0 0 1 -158 -322 )">
    <path d="M 159 327  A 4 4 0 0 1 163 323 L 250 323  A 4 4 0 0 1 254 327 L 254 340  A 4 4 0 0 1 250 344 L 163 344  A 4 4 0 0 1 159 340 L 159 327  Z " fill-rule="nonzero" fill="#ffffff" stroke="none" />
    <path d="M 158.5 327  A 4.5 4.5 0 0 1 163 322.5 L 250 322.5  A 4.5 4.5 0 0 1 254.5 327 L 254.5 340  A 4.5 4.5 0 0 1 250 344.5 L 163 344.5  A 4.5 4.5 0 0 1 158.5 340 L 158.5 327  Z " stroke-width="1" stroke-dasharray="3,1" stroke="#3366ff" fill="none" stroke-dashoffset="0.5" />
  </g>
</svg>