<?xml version="1.0" encoding="utf-8"?>
<svg version="1.1" xmlns:xlink="http://www.w3.org/1999/xlink" width="101px" height="23px" xmlns="http://www.w3.org/2000/svg">
  <g transform="matrix(1 0 0 1 -261 -322 )">
    <path d="M 262 327  A 4 4 0 0 1 266 323 L 357 323  A 4 4 0 0 1 361 327 L 361 340  A 4 4 0 0 1 357 344 L 266 344  A 4 4 0 0 1 262 340 L 262 327  Z " fill-rule="nonzero" fill="#ffffff" stroke="none" />
    <path d="M 261.5 327  A 4.5 4.5 0 0 1 266 322.5 L 357 322.5  A 4.5 4.5 0 0 1 361.5 327 L 361.5 340  A 4.5 4.5 0 0 1 357 344.5 L 266 344.5  A 4.5 4.5 0 0 1 261.5 340 L 261.5 327  Z " stroke-width="1" stroke-dasharray="3,1" stroke="#ff9933" fill="none" stroke-dashoffset="0.5" />
  </g>
</svg>