<?xml version="1.0" encoding="utf-8"?>
<svg version="1.1" xmlns:xlink="http://www.w3.org/1999/xlink" width="70px" height="23px" xmlns="http://www.w3.org/2000/svg">
  <g transform="matrix(1 0 0 1 -234 -353 )">
    <path d="M 235 358  A 4 4 0 0 1 239 354 L 299 354  A 4 4 0 0 1 303 358 L 303 371  A 4 4 0 0 1 299 375 L 239 375  A 4 4 0 0 1 235 371 L 235 358  Z " fill-rule="nonzero" fill="#ffffff" stroke="none" />
    <path d="M 234.5 358  A 4.5 4.5 0 0 1 239 353.5 L 299 353.5  A 4.5 4.5 0 0 1 303.5 358 L 303.5 371  A 4.5 4.5 0 0 1 299 375.5 L 239 375.5  A 4.5 4.5 0 0 1 234.5 371 L 234.5 358  Z " stroke-width="1" stroke-dasharray="3,1" stroke="#33cc66" fill="none" stroke-dashoffset="0.5" />
  </g>
</svg>