<?xml version="1.0" encoding="utf-8"?>
<svg version="1.1" xmlns:xlink="http://www.w3.org/1999/xlink" width="178px" height="23px" xmlns="http://www.w3.org/2000/svg">
  <g transform="matrix(1 0 0 1 -45 -353 )">
    <path d="M 46 358  A 4 4 0 0 1 50 354 L 218 354  A 4 4 0 0 1 222 358 L 222 371  A 4 4 0 0 1 218 375 L 50 375  A 4 4 0 0 1 46 371 L 46 358  Z " fill-rule="nonzero" fill="#ffffff" stroke="none" />
    <path d="M 45.5 358  A 4.5 4.5 0 0 1 50 353.5 L 218 353.5  A 4.5 4.5 0 0 1 222.5 358 L 222.5 371  A 4.5 4.5 0 0 1 218 375.5 L 50 375.5  A 4.5 4.5 0 0 1 45.5 371 L 45.5 358  Z " stroke-width="1" stroke-dasharray="3,1" stroke="#3366ff" fill="none" stroke-dashoffset="0.5" />
  </g>
</svg>