<?xml version="1.0" encoding="utf-8"?>
<svg version="1.1" xmlns:xlink="http://www.w3.org/1999/xlink" width="110px" height="111px" xmlns="http://www.w3.org/2000/svg">
  <defs>
    <filter x="265px" y="85px" width="110px" height="111px" filterUnits="userSpaceOnUse" id="filter23">
      <feOffset dx="5" dy="5" in="SourceAlpha" result="shadowOffsetInner" />
      <feGaussianBlur stdDeviation="2.5" in="shadowOffsetInner" result="shadowGaussian" />
      <feComposite in2="shadowGaussian" operator="atop" in="SourceAlpha" result="shadowComposite" />
      <feColorMatrix type="matrix" values="0 0 0 0 0  0 0 0 0 0  0 0 0 0 0  0 0 0 0.349019607843137 0  " in="shadowComposite" />
    </filter>
    <g id="widget24">
      <path d="M 266 95  A 9 9 0 0 1 275 86 L 355 86  A 9 9 0 0 1 364 95 L 364 176  A 9 9 0 0 1 355 185 L 275 185  A 9 9 0 0 1 266 176 L 266 95  Z " fill-rule="nonzero" fill="#cc9933" stroke="none" />
      <path d="M 265.5 95  A 9.5 9.5 0 0 1 275 85.5 L 355 85.5  A 9.5 9.5 0 0 1 364.5 95 L 364.5 176  A 9.5 9.5 0 0 1 355 185.5 L 275 185.5  A 9.5 9.5 0 0 1 265.5 176 L 265.5 95  Z " stroke-width="1" stroke-dasharray="3,1" stroke="#009dd9" fill="none" stroke-dashoffset="0.5" />
    </g>
  </defs>
  <g transform="matrix(1 0 0 1 -265 -85 )">
    <use xlink:href="#widget24" filter="url(#filter23)" />
    <use xlink:href="#widget24" />
  </g>
</svg>