<?xml version="1.0" encoding="utf-8"?>
<svg version="1.1" xmlns:xlink="http://www.w3.org/1999/xlink" width="372px" height="60px" xmlns="http://www.w3.org/2000/svg">
  <defs>
    <filter x="0px" y="269px" width="372px" height="60px" filterUnits="userSpaceOnUse" id="filter25">
      <feOffset dx="5" dy="5" in="SourceAlpha" result="shadowOffsetInner" />
      <feGaussianBlur stdDeviation="2.5" in="shadowOffsetInner" result="shadowGaussian" />
      <feComposite in2="shadowGaussian" operator="atop" in="SourceAlpha" result="shadowComposite" />
      <feColorMatrix type="matrix" values="0 0 0 0 0  0 0 0 0 0  0 0 0 0 0  0 0 0 0.349019607843137 0  " in="shadowComposite" />
    </filter>
    <g id="widget26">
      <path d="M 1 279  A 9 9 0 0 1 10 270 L 352 270  A 9 9 0 0 1 361 279 L 361 309  A 9 9 0 0 1 352 318 L 10 318  A 9 9 0 0 1 1 309 L 1 279  Z " fill-rule="nonzero" fill="#cc9933" stroke="none" />
      <path d="M 0.5 279  A 9.5 9.5 0 0 1 10 269.5 L 352 269.5  A 9.5 9.5 0 0 1 361.5 279 L 361.5 309  A 9.5 9.5 0 0 1 352 318.5 L 10 318.5  A 9.5 9.5 0 0 1 0.5 309 L 0.5 279  Z " stroke-width="1" stroke-dasharray="3,1" stroke="#009dd9" fill="none" stroke-dashoffset="0.5" />
    </g>
  </defs>
  <g transform="matrix(1 0 0 1 0 -269 )">
    <use xlink:href="#widget26" filter="url(#filter25)" />
    <use xlink:href="#widget26" />
  </g>
</svg>