<?xml version="1.0" encoding="utf-8"?>
<svg version="1.1" xmlns:xlink="http://www.w3.org/1999/xlink" width="365px" height="45px" xmlns="http://www.w3.org/2000/svg">
  <g transform="matrix(1 0 0 1 -5 -388 )">
    <path d="M 6 398  A 9 9 0 0 1 15 389 L 360 389  A 9 9 0 0 1 369 398 L 369 423  A 9 9 0 0 1 360 432 L 15 432  A 9 9 0 0 1 6 423 L 6 398  Z " fill-rule="nonzero" fill="#ffffff" stroke="none" />
    <path d="M 5.5 398  A 9.5 9.5 0 0 1 15 388.5 L 360 388.5  A 9.5 9.5 0 0 1 369.5 398 L 369.5 423  A 9.5 9.5 0 0 1 360 432.5 L 15 432.5  A 9.5 9.5 0 0 1 5.5 423 L 5.5 398  Z " stroke-width="1" stroke-dasharray="3,1" stroke="#cccccc" fill="none" stroke-opacity="0.709803921568627" stroke-dashoffset="0.5" />
  </g>
</svg>