<?xml version="1.0" encoding="utf-8"?>
<svg version="1.1" xmlns:xlink="http://www.w3.org/1999/xlink" width="360px" height="88px" xmlns="http://www.w3.org/2000/svg">
  <g transform="matrix(1 0 0 1 -7 -280 )">
    <path d="M 8 290  A 9 9 0 0 1 17 281 L 357 281  A 9 9 0 0 1 366 290 L 366 358  A 9 9 0 0 1 357 367 L 17 367  A 9 9 0 0 1 8 358 L 8 290  Z " fill-rule="nonzero" fill="#ffffff" stroke="none" />
    <path d="M 7.5 290  A 9.5 9.5 0 0 1 17 280.5 L 357 280.5  A 9.5 9.5 0 0 1 366.5 290 L 366.5 358  A 9.5 9.5 0 0 1 357 367.5 L 17 367.5  A 9.5 9.5 0 0 1 7.5 358 L 7.5 290  Z " stroke-width="1" stroke-dasharray="3,1" stroke="#cccccc" fill="none" stroke-opacity="0.709803921568627" stroke-dashoffset="0.5" />
  </g>
</svg>