<?xml version="1.0" encoding="utf-8"?>
<svg version="1.1" xmlns:xlink="http://www.w3.org/1999/xlink" width="10px" height="1516.66662597656px" preserveAspectRatio="xMidYMin meet" viewBox="206 1795.90905761719  8 1516.66662597656" xmlns="http://www.w3.org/2000/svg">
  <path d="M 210 1801  L 210 1853.90905761719  A 3 3 0 0 1 213 1856.90905761719 A 3 3 0 0 1 210 1859.90905761719 L 210 3302.57568359375  A 5 5 0 0 0 215 3307.57568359375 L 229.212158203125 3307.57568359375  A 0.787841796875 0.787841796875 0 0 0 230 3306.78784179688 A 0.787841796875 0.787841796875 0 0 1 230.787841796875 3306 L 235 3306  " stroke-width="2" stroke-dasharray="6,2" stroke="#0099cc" fill="none" />
  <path d="M 229.892893218813 3301.70710678119  L 234.185786437627 3306  L 229.892893218813 3310.29289321881  L 231.307106781187 3311.70710678119  L 236.307106781187 3306.70710678119  L 237.014213562373 3306  L 236.307106781187 3305.29289321881  L 231.307106781187 3300.29289321881  L 229.892893218813 3301.70710678119  Z " fill-rule="nonzero" fill="#0099cc" stroke="none" />
</svg>