<?xml version="1.0" encoding="utf-8"?>
<svg version="1.1" xmlns:xlink="http://www.w3.org/1999/xlink" width="898px" height="10px" preserveAspectRatio="xMinYMid meet" viewBox="370 3107  898 8" xmlns="http://www.w3.org/2000/svg">
  <path d="M 370 3111.5  L 1258 3111.5  A 5 5 0 0 0 1263.5 3106 L 1263.5 2450.9091796875  A 3 3 0 0 0 1266.5 2447.9091796875 A 3 3 0 0 0 1263.5 2444.9091796875 L 1263.5 2434  A 3 3 0 0 0 1266.5 2431 A 3 3 0 0 0 1263.5 2428 L 1263.5 2285  A 5 5 0 0 1 1268.5 2280.5 L 1319 2280.5  " stroke-width="1" stroke-dasharray="3,1" stroke="#0099cc" fill="none" />
  <path d="M 1313.94644660941 2275.85355339059  L 1318.59289321881 2280.5  L 1313.94644660941 2285.14644660941  L 1314.65355339059 2285.85355339059  L 1319.65355339059 2280.85355339059  L 1320.00710678119 2280.5  L 1319.65355339059 2280.14644660941  L 1314.65355339059 2275.14644660941  L 1313.94644660941 2275.85355339059  Z " fill-rule="nonzero" fill="#0099cc" stroke="none" />
</svg>