<?xml version="1.0" encoding="utf-8"?>
<svg version="1.1" xmlns:xlink="http://www.w3.org/1999/xlink" width="20px" height="21px" preserveAspectRatio="xMidYMin meet" viewBox="1351 2682  18 21" xmlns="http://www.w3.org/2000/svg">
  <path d="M 340 3211  L 340 3210.9091796875  A 5 5 0 0 1 345 3205.9091796875 L 415 3205.9091796875  A 5 5 0 0 0 420 3200.9091796875 L 420 3114  A 3 3 0 0 0 423 3111 A 3 3 0 0 0 420 3108 L 420 2915.9091796875  A 5 5 0 0 1 425 2910.9091796875 L 1260 2910.9091796875  A 3 3 0 0 1 1263 2907.9091796875 A 3 3 0 0 1 1266 2910.9091796875 L 1355 2910.9091796875  A 5 5 0 0 0 1360 2905.9091796875 L 1360 2693  " stroke-width="2" stroke-dasharray="6,2" stroke="#0099cc" fill="none" />
  <path d="M 1355.70710678119 2698.10710678119  L 1360 2693.81421356237  L 1364.29289321881 2698.10710678119  L 1365.70710678119 2696.69289321881  L 1360.70710678119 2691.69289321881  L 1360 2690.98578643763  L 1359.29289321881 2691.69289321881  L 1354.29289321881 2696.69289321881  L 1355.70710678119 2698.10710678119  Z " fill-rule="nonzero" fill="#0099cc" stroke="none" />
</svg>