<?xml version="1.0" encoding="utf-8"?>
<svg version="1.1" xmlns:xlink="http://www.w3.org/1999/xlink" width="99px" height="10px" preserveAspectRatio="xMinYMid meet" viewBox="881 1707  99 8" xmlns="http://www.w3.org/2000/svg">
  <path d="M 980 1711.5  L 943 1711.5  A 3 3 0 0 0 940 1708.5 A 3 3 0 0 0 937 1711.5 L 891 1711.5  A 5 5 0 0 0 886.5 1716 L 886.5 1788  A 3 3 0 0 1 889.5 1791 A 3 3 0 0 1 886.5 1794 L 886.5 2228  A 3 3 0 0 1 889.5 2231 A 3 3 0 0 1 886.5 2234 L 886.5 2267.9091796875  A 3 3 0 0 1 889.5 2270.9091796875 A 3 3 0 0 1 886.5 2273.9091796875 L 886.5 2410  " stroke-width="1" stroke-dasharray="3,1" stroke="#0099cc" fill="none" />
  <path d="M 891.146446609407 2404.94644660941  L 886.5 2409.59289321881  L 881.853553390593 2404.94644660941  L 881.146446609407 2405.65355339059  L 886.146446609407 2410.65355339059  L 886.5 2411.00710678119  L 886.853553390593 2410.65355339059  L 891.853553390593 2405.65355339059  L 891.146446609407 2404.94644660941  Z " fill-rule="nonzero" fill="#0099cc" stroke="none" />
</svg>