<?xml version="1.0" encoding="utf-8"?>
<svg version="1.1" xmlns:xlink="http://www.w3.org/1999/xlink" width="109px" height="10px" preserveAspectRatio="xMinYMid meet" viewBox="858 1491  109 8" xmlns="http://www.w3.org/2000/svg">
  <path d="M 858 1495.5  L 937 1495.5  A 3 3 0 0 1 940 1492.5 A 3 3 0 0 1 943 1495.5 L 957 1495.5  A 5 5 0 0 1 962.5 1500 L 962.5 1549  A 3 3 0 0 1 965.5 1552 A 3 3 0 0 1 962.5 1555 L 962.5 1598  A 3 3 0 0 1 965.5 1601 A 3 3 0 0 1 962.5 1604 L 962.5 1711  " stroke-width="1" stroke-dasharray="3,1" stroke="#0099cc" fill="none" />
</svg>