<?xml version="1.0" encoding="utf-8"?>
<svg version="1.1" xmlns:xlink="http://www.w3.org/1999/xlink" width="10px" height="12.9091796875px" preserveAspectRatio="xMidYMin meet" viewBox="1524 3433  8 12.9091796875" xmlns="http://www.w3.org/2000/svg">
  <path d="M 1528.5 3433  L 1528.5 3440.74249267578  A 0.16668701171875 0.16668701171875 0 0 1 1528.33331298828 3441.4091796875 A 0.16668701171875 0.16668701171875 0 0 0 1528.16662597656 3441.57586669922 A 3.72418212890625 3.72418212890625 0 0 1 1524.44244384766 3445.30004882813 L 605 3445.30004882813  A 5 5 0 0 0 600.5 3450.30004882813 L 600.5 3505  A 5 5 0 0 1 595.5 3510.5 L 591 3510.5  " stroke-width="1" stroke-dasharray="3,1" stroke="#0099cc" fill="none" />
  <path d="M 596.053553390593 3515.14644660941  L 591.407106781187 3510.5  L 596.053553390593 3505.85355339059  L 595.346446609407 3505.14644660941  L 590.346446609407 3510.14644660941  L 589.992893218813 3510.5  L 590.346446609407 3510.85355339059  L 595.346446609407 3515.85355339059  L 596.053553390593 3515.14644660941  Z " fill-rule="nonzero" fill="#0099cc" stroke="none" />
</svg>