<?xml version="1.0" encoding="utf-8"?>
<svg version="1.1" xmlns:xlink="http://www.w3.org/1999/xlink" width="827px" height="10px" preserveAspectRatio="xMinYMid meet" viewBox="538 3458.9091796875  827 8" xmlns="http://www.w3.org/2000/svg">
  <path d="M 545.5 3213.5  A 2 2 0 0 0 543.5 3215.5 L 543.5 3457.9091796875  A 5 5 0 0 0 548 3463.4091796875 L 561 3463.4091796875  A 3 3 0 0 1 564 3460.4091796875 A 3 3 0 0 1 567 3463.4091796875 L 597 3463.4091796875  A 3 3 0 0 1 600 3460.4091796875 A 3 3 0 0 1 603 3463.4091796875 L 1355 3463.4091796875  A 5 5 0 0 0 1360.5 3457.9091796875 L 1360.5 3447.80004882813  A 3 3 0 0 0 1363.5 3444.80004882813 A 3 3 0 0 0 1360.5 3441.80004882813 L 1360.5 3285  A 5 5 0 0 1 1365.5 3280.5 L 1389 3280.5  " stroke-width="1" stroke-dasharray="3,1" stroke="#0099cc" fill="none" />
  <path d="M 1383.94644660941 3275.85355339059  L 1388.59289321881 3280.5  L 1383.94644660941 3285.14644660941  L 1384.65355339059 3285.85355339059  L 1389.65355339059 3280.85355339059  L 1390.00710678119 3280.5  L 1389.65355339059 3280.14644660941  L 1384.65355339059 3275.14644660941  L 1383.94644660941 3275.85355339059  Z " fill-rule="nonzero" fill="#0099cc" stroke="none" />
</svg>