<?xml version="1.0" encoding="utf-8"?>
<svg version="1.1" xmlns:xlink="http://www.w3.org/1999/xlink" width="60px" height="10px" preserveAspectRatio="xMinYMid meet" viewBox="860 1627  60 8" xmlns="http://www.w3.org/2000/svg">
  <path d="M 720 3201  L 720 3114  A 3 3 0 0 0 723 3111 A 3 3 0 0 0 720 3108 L 720 2913.9091796875  A 3 3 0 0 0 723 2910.9091796875 A 3 3 0 0 0 720 2907.9091796875 L 720 2804  A 5 5 0 0 1 725 2799 L 910 2799  A 5 5 0 0 0 915 2794 L 915 2733  A 3 3 0 0 0 918 2730 A 3 3 0 0 0 915 2727 L 915 2643  A 3 3 0 0 0 918 2640 A 3 3 0 0 0 915 2637 L 915 2511  A 3 3 0 0 0 918 2508 A 3 3 0 0 0 915 2505 L 915 2481  A 3 3 0 0 0 918 2478 A 3 3 0 0 0 915 2475 L 915 2434  A 3 3 0 0 0 918 2431 A 3 3 0 0 0 915 2428 L 915 2273.9091796875  A 3 3 0 0 0 918 2270.9091796875 A 3 3 0 0 0 915 2267.9091796875 L 915 2234  A 3 3 0 0 0 918 2231 A 3 3 0 0 0 915 2228 L 915 1794  A 3 3 0 0 0 918 1791 A 3 3 0 0 0 915 1788 L 915 1714  A 3 3 0 0 0 918 1711 A 3 3 0 0 0 915 1708 L 915 1636  A 5 5 0 0 0 910 1631 L 904 1631  A 3 3 0 0 0 901 1628 A 3 3 0 0 0 898 1631 L 873 1631  A 3 3 0 0 0 870 1628 A 3 3 0 0 0 867 1631 L 862 1631  " stroke-width="2" stroke-dasharray="6,2" stroke="#0099cc" fill="none" />
  <path d="M 867.107106781187 1635.29289321881  L 862.814213562373 1631  L 867.107106781187 1626.70710678119  L 865.692893218813 1625.29289321881  L 860.692893218813 1630.29289321881  L 859.985786437627 1631  L 860.692893218813 1631.70710678119  L 865.692893218813 1636.70710678119  L 867.107106781187 1635.29289321881  Z " fill-rule="nonzero" fill="#0099cc" stroke="none" />
</svg>