<?xml version="1.0" encoding="utf-8"?>
<svg version="1.1" xmlns:xlink="http://www.w3.org/1999/xlink" width="587px" height="10px" preserveAspectRatio="xMinYMid meet" viewBox="1260 2016  587 8" xmlns="http://www.w3.org/2000/svg">
  <path d="M 1302 3210  L 1302 3020  A 5 5 0 0 1 1307 3015 L 1397 3015  A 3 3 0 0 1 1400 3012 A 3 3 0 0 1 1403 3015 L 1837 3015  A 5 5 0 0 0 1842 3010 L 1842 2025  A 5 5 0 0 0 1837 2020 L 1323 2020  A 3 3 0 0 0 1320 2017 A 3 3 0 0 0 1317 2020 L 1262 2020  " stroke-width="2" stroke-dasharray="6,2" stroke="#0099cc" fill="none" />
  <path d="M 1267.10710678119 2024.29289321881  L 1262.81421356237 2020  L 1267.10710678119 2015.70710678119  L 1265.69289321881 2014.29289321881  L 1260.69289321881 2019.29289321881  L 1259.98578643763 2020  L 1260.69289321881 2020.70710678119  L 1265.69289321881 2025.70710678119  L 1267.10710678119 2024.29289321881  Z " fill-rule="nonzero" fill="#0099cc" stroke="none" />
</svg>