<?xml version="1.0" encoding="utf-8"?>
<svg version="1.1" xmlns:xlink="http://www.w3.org/1999/xlink" width="10px" height="516.5px" preserveAspectRatio="xMidYMin meet" viewBox="406 3299.4091796875  8 516.5" xmlns="http://www.w3.org/2000/svg">
  <path d="M 360.5 3305.5  A 0.5908203125 0.5908203125 0 0 1 361.0908203125 3304.9091796875 L 405 3304.9091796875  A 5 5 0 0 1 410.5 3309.9091796875 L 410.5 3805.9091796875  A 5 5 0 0 0 415.5 3811.4091796875 L 795 3811.4091796875  A 5 5 0 0 0 800.5 3806.4091796875 L 800.5 3655  A 5 5 0 0 1 805.5 3650.5 L 909 3650.5  " stroke-width="1" stroke-dasharray="3,1" stroke="#0099cc" fill="none" />
  <path d="M 903.946446609407 3645.85355339059  L 908.592893218813 3650.5  L 903.946446609407 3655.14644660941  L 904.653553390593 3655.85355339059  L 909.653553390593 3650.85355339059  L 910.007106781187 3650.5  L 909.653553390593 3650.14644660941  L 904.653553390593 3645.14644660941  L 903.946446609407 3645.85355339059  Z " fill-rule="nonzero" fill="#0099cc" stroke="none" />
</svg>