<?xml version="1.0" encoding="utf-8"?>
<svg version="1.1" xmlns:xlink="http://www.w3.org/1999/xlink" width="20px" height="20px" preserveAspectRatio="xMinYMid meet" viewBox="228 2522  20 18" xmlns="http://www.w3.org/2000/svg">
  <path d="M 190 1806  L 190 1853.90905761719  A 3 3 0 0 1 193 1856.90905761719 A 3 3 0 0 1 190 1859.90905761719 L 190 2526  A 5 5 0 0 0 195 2531 L 207 2531  A 3 3 0 0 1 210 2528 A 3 3 0 0 1 213 2531 L 238 2531  " stroke-width="2" stroke-dasharray="6,2" stroke="#0099cc" fill="none" />
  <path d="M 232.892893218813 2526.70710678119  L 237.185786437627 2531  L 232.892893218813 2535.29289321881  L 234.307106781187 2536.70710678119  L 239.307106781187 2531.70710678119  L 240.014213562373 2531  L 239.307106781187 2530.29289321881  L 234.307106781187 2525.29289321881  L 232.892893218813 2526.70710678119  Z " fill-rule="nonzero" fill="#0099cc" stroke="none" />
</svg>