<?xml version="1.0" encoding="utf-8"?>
<svg version="1.1" xmlns:xlink="http://www.w3.org/1999/xlink" width="10px" height="2218px" preserveAspectRatio="xMidYMin meet" viewBox="152 1797  8 2218" xmlns="http://www.w3.org/2000/svg">
  <path d="M 156 1797  L 156 1853.90905761719  A 3 3 0 0 1 159 1856.90905761719 A 3 3 0 0 1 156 1859.90905761719 L 156 3601.9091796875  A 3 3 0 0 1 159 3604.9091796875 A 3 3 0 0 1 156 3607.9091796875 L 156 4005  A 5 5 0 0 0 161 4010 L 228 4010  " stroke-width="2" stroke-dasharray="6,2" stroke="#0099cc" fill="none" />
  <path d="M 222.892893218813 4005.70710678119  L 227.185786437627 4010  L 222.892893218813 4014.29289321881  L 224.307106781187 4015.70710678119  L 229.307106781187 4010.70710678119  L 230.014213562373 4010  L 229.307106781187 4009.29289321881  L 224.307106781187 4004.29289321881  L 222.892893218813 4005.70710678119  Z " fill-rule="nonzero" fill="#0099cc" stroke="none" />
</svg>