<?xml version="1.0" encoding="utf-8"?>
<svg version="1.1" xmlns:xlink="http://www.w3.org/1999/xlink" width="10px" height="187px" preserveAspectRatio="xMidYMin meet" viewBox="416 3813.9091796875  8 187" xmlns="http://www.w3.org/2000/svg">
  <path d="M 1450.5 3431  L 1450.5 3441.80004882813  A 3 3 0 0 1 1453.5 3444.80004882813 A 3 3 0 0 1 1450.5 3447.80004882813 L 1450.5 3813.9091796875  A 5 5 0 0 1 1445 3819.4091796875 L 1353 3819.4091796875  A 3 3 0 0 0 1350 3816.4091796875 A 3 3 0 0 0 1347 3819.4091796875 L 803 3819.4091796875  A 3 3 0 0 0 800 3816.4091796875 A 3 3 0 0 0 797 3819.4091796875 L 425 3819.4091796875  A 5 5 0 0 0 420.5 3824.4091796875 L 420.5 4000  " stroke-width="1" stroke-dasharray="3,1" stroke="#0099cc" fill="none" />
  <path d="M 425.146446609407 3994.94644660941  L 420.5 3999.59289321881  L 415.853553390593 3994.94644660941  L 415.146446609407 3995.65355339059  L 420.146446609407 4000.65355339059  L 420.5 4001.00710678119  L 420.853553390593 4000.65355339059  L 425.853553390593 3995.65355339059  L 425.146446609407 3994.94644660941  Z " fill-rule="nonzero" fill="#0099cc" stroke="none" />
</svg>