<?xml version="1.0" encoding="utf-8"?>
<svg version="1.1" xmlns:xlink="http://www.w3.org/1999/xlink" width="10px" height="18px" preserveAspectRatio="xMidYMin meet" viewBox="1041 1575.90905761719  8 18" xmlns="http://www.w3.org/2000/svg">
  <path d="M 1045.5 1594  L 1045.5 1581.07574462891  A 0.16668701171875 0.16668701171875 0 0 0 1045.33331298828 1581.40905761719 A 0.16668701171875 0.16668701171875 0 0 1 1045.16662597656 1581.24237060547 L 1045.16662597656 1557  A 5 5 0 0 0 1039.66662597656 1552.5 L 943 1552.5  A 3 3 0 0 0 940 1549.5 A 3 3 0 0 0 937 1552.5 L 857 1552.5  " stroke-width="1" stroke-dasharray="3,1" stroke="#0099cc" fill="none" />
  <path d="M 862.053553390593 1557.14644660941  L 857.407106781187 1552.5  L 862.053553390593 1547.85355339059  L 861.346446609407 1547.14644660941  L 856.346446609407 1552.14644660941  L 855.992893218813 1552.5  L 856.346446609407 1552.85355339059  L 861.346446609407 1557.85355339059  L 862.053553390593 1557.14644660941  Z " fill-rule="nonzero" fill="#0099cc" stroke="none" />
</svg>