<?xml version="1.0" encoding="utf-8"?>
<svg version="1.1" xmlns:xlink="http://www.w3.org/1999/xlink" width="18px" height="19px" preserveAspectRatio="xMidYMin meet" viewBox="852 2045  16 19" xmlns="http://www.w3.org/2000/svg">
  <path d="M 820 1575.5  L 865 1575.5  A 5 5 0 0 1 870.5 1580 L 870.5 1598  A 3 3 0 0 1 873.5 1601 A 3 3 0 0 1 870.5 1604 L 870.5 1702  A 3 3 0 0 1 873.5 1705 A 3 3 0 0 1 870.5 1708 L 870.5 1788  A 3 3 0 0 1 873.5 1791 A 3 3 0 0 1 870.5 1794 L 870.5 2040.90905761719  A 5 5 0 0 1 865.5 2046.40905761719 A 5 5 0 0 0 860.5 2051.40905761719 L 860.5 2055  " stroke-width="1" stroke-dasharray="3,1" stroke="#0099cc" fill="none" />
  <path d="M 865.146446609407 2049.94644660941  L 860.5 2054.59289321881  L 855.853553390593 2049.94644660941  L 855.146446609407 2050.65355339059  L 860.146446609407 2055.65355339059  L 860.5 2056.00710678119  L 860.853553390593 2055.65355339059  L 865.853553390593 2050.65355339059  L 865.146446609407 2049.94644660941  Z " fill-rule="nonzero" fill="#0099cc" stroke="none" />
</svg>