<?xml version="1.0" encoding="utf-8"?>
<svg version="1.1" xmlns:xlink="http://www.w3.org/1999/xlink" width="38px" height="10px" preserveAspectRatio="xMinYMid meet" viewBox="360 2493  38 8" xmlns="http://www.w3.org/2000/svg">
  <path d="M 360 2497.5  L 388 2497.5  A 5 5 0 0 0 393.5 2492.5 L 393.5 2490  A 5 5 0 0 1 398 2485.5 L 561 2485.5  A 3 3 0 0 1 564 2482.5 A 3 3 0 0 1 567 2485.5 L 671 2485.5  A 3 3 0 0 1 674 2482.5 A 3 3 0 0 1 677 2485.5 L 749 2485.5  " stroke-width="1" stroke-dasharray="3,1" stroke="#0099cc" fill="none" />
  <path d="M 743.946446609407 2480.85355339059  L 748.592893218813 2485.5  L 743.946446609407 2490.14644660941  L 744.653553390593 2490.85355339059  L 749.653553390593 2485.85355339059  L 750.007106781187 2485.5  L 749.653553390593 2485.14644660941  L 744.653553390593 2480.14644660941  L 743.946446609407 2480.85355339059  Z " fill-rule="nonzero" fill="#0099cc" stroke="none" />
</svg>