<?xml version="1.0" encoding="utf-8"?>
<svg version="1.1" xmlns:xlink="http://www.w3.org/1999/xlink" width="10px" height="7.0908203125px" preserveAspectRatio="xMinYMid meet" viewBox="1285 2443.9091796875  10 5.0908203125" xmlns="http://www.w3.org/2000/svg">
  <path d="M 1290.5 2450.5  A 2.0908203125 2.0908203125 0 0 0 1288.4091796875 2448.4091796875 L 1245 2448.4091796875  A 5 5 0 0 1 1240.5 2442.9091796875 L 1240.5 2434  A 3 3 0 0 0 1243.5 2431 A 3 3 0 0 0 1240.5 2428 L 1240.5 2315  A 5 5 0 0 0 1235.5 2310.5 L 1171 2310.5  " stroke-width="1" stroke-dasharray="3,1" stroke="#0099cc" fill="none" />
  <path d="M 1176.05355339059 2315.14644660941  L 1171.40710678119 2310.5  L 1176.05355339059 2305.85355339059  L 1175.34644660941 2305.14644660941  L 1170.34644660941 2310.14644660941  L 1169.99289321881 2310.5  L 1170.34644660941 2310.85355339059  L 1175.34644660941 2315.85355339059  L 1176.05355339059 2315.14644660941  Z " fill-rule="nonzero" fill="#0099cc" stroke="none" />
</svg>