<?xml version="1.0" encoding="utf-8"?>
<svg version="1.1" xmlns:xlink="http://www.w3.org/1999/xlink" width="10px" height="338px" preserveAspectRatio="xMidYMin meet" viewBox="366 2428  8 338" xmlns="http://www.w3.org/2000/svg">
  <path d="M 370.5 2428  L 370.5 2448  A 3 3 0 0 1 373.5 2451 A 3 3 0 0 1 370.5 2454 L 370.5 2474  A 3 3 0 0 1 373.5 2477 A 3 3 0 0 1 370.5 2480 L 370.5 2494  A 3 3 0 0 1 373.5 2497 A 3 3 0 0 1 370.5 2500 L 370.5 2541  A 3 3 0 0 1 373.5 2544 A 3 3 0 0 1 370.5 2547 L 370.5 2760  " stroke-width="1" stroke-dasharray="3,1" stroke="#0099cc" fill="none" />
  <path d="M 375.146446609407 2754.94644660941  L 370.5 2759.59289321881  L 365.853553390593 2754.94644660941  L 365.146446609407 2755.65355339059  L 370.146446609407 2760.65355339059  L 370.5 2761.00710678119  L 370.853553390593 2760.65355339059  L 375.853553390593 2755.65355339059  L 375.146446609407 2754.94644660941  Z " fill-rule="nonzero" fill="#0099cc" stroke="none" />
</svg>