<?xml version="1.0" encoding="utf-8"?>
<svg version="1.1" xmlns:xlink="http://www.w3.org/1999/xlink" width="20px" height="20px" preserveAspectRatio="xMinYMid meet" viewBox="1112 1621  20 18" xmlns="http://www.w3.org/2000/svg">
  <path d="M 340 2811  L 621 2811  A 5 5 0 0 0 626 2806 L 626 2488  A 3 3 0 0 0 629 2485 A 3 3 0 0 0 626 2482 L 626 2454  A 3 3 0 0 0 629 2451 A 3 3 0 0 0 626 2448 L 626 2275.9091796875  A 5 5 0 0 1 631 2270.9091796875 L 1167 2270.9091796875  A 3 3 0 0 1 1170 2267.9091796875 A 3 3 0 0 1 1173 2270.9091796875 L 1255 2270.9091796875  A 5 5 0 0 0 1260 2265.9091796875 L 1260 1635  A 5 5 0 0 0 1255 1630 L 1122 1630  " stroke-width="2" stroke-dasharray="6,2" stroke="#0099cc" fill="none" />
  <path d="M 1127.10710678119 1634.29289321881  L 1122.81421356237 1630  L 1127.10710678119 1625.70710678119  L 1125.69289321881 1624.29289321881  L 1120.69289321881 1629.29289321881  L 1119.98578643763 1630  L 1120.69289321881 1630.70710678119  L 1125.69289321881 1635.70710678119  L 1127.10710678119 1634.29289321881  Z " fill-rule="nonzero" fill="#0099cc" stroke="none" />
</svg>