<?xml version="1.0" encoding="utf-8"?>
<svg version="1.1" xmlns:xlink="http://www.w3.org/1999/xlink" width="10px" height="205px" preserveAspectRatio="xMidYMin meet" viewBox="146 1635  8 205" xmlns="http://www.w3.org/2000/svg">
  <path d="M 620 1640  L 463 1640  A 3 3 0 0 0 460 1637 A 3 3 0 0 0 457 1640 L 233 1640  A 3 3 0 0 0 230 1637 A 3 3 0 0 0 227 1640 L 155 1640  A 5 5 0 0 0 150 1645 L 150 1838  " stroke-width="2" stroke-dasharray="6,2" stroke="#0099cc" fill="none" />
  <path d="M 154.292893218813 1832.89289321881  L 150 1837.18578643763  L 145.707106781187 1832.89289321881  L 144.292893218813 1834.30710678119  L 149.292893218813 1839.30710678119  L 150 1840.01421356237  L 150.707106781187 1839.30710678119  L 155.707106781187 1834.30710678119  L 154.292893218813 1832.89289321881  Z " fill-rule="nonzero" fill="#0099cc" stroke="none" />
</svg>