<?xml version="1.0" encoding="utf-8"?>
<svg version="1.1" xmlns:xlink="http://www.w3.org/1999/xlink" width="135px" height="10px" preserveAspectRatio="xMinYMid meet" viewBox="475 3716  135 8" xmlns="http://www.w3.org/2000/svg">
  <path d="M 610 3720  L 485 3720  A 5 5 0 0 1 480 3715 L 480 3653  A 3 3 0 0 0 483 3650 A 3 3 0 0 0 480 3647 L 480 3583  A 3 3 0 0 0 483 3580 A 3 3 0 0 0 480 3577 L 480 3542  " stroke-width="2" stroke-dasharray="6,2" stroke="#0099cc" fill="none" />
  <path d="M 475.707106781187 3547.10710678119  L 480 3542.81421356237  L 484.292893218813 3547.10710678119  L 485.707106781187 3545.69289321881  L 480.707106781187 3540.69289321881  L 480 3539.98578643763  L 479.292893218813 3540.69289321881  L 474.292893218813 3545.69289321881  L 475.707106781187 3547.10710678119  Z " fill-rule="nonzero" fill="#0099cc" stroke="none" />
</svg>