<?xml version="1.0" encoding="utf-8"?>
<svg version="1.1" xmlns:xlink="http://www.w3.org/1999/xlink" width="10px" height="425px" preserveAspectRatio="xMidYMin meet" viewBox="246 3600  8 425" xmlns="http://www.w3.org/2000/svg">
  <path d="M 610 4020  L 255 4020  A 5 5 0 0 1 250 4015 L 250 3933  A 3 3 0 0 0 253 3930 A 3 3 0 0 0 250 3927 L 250 3873  A 3 3 0 0 0 253 3870 A 3 3 0 0 0 250 3867 L 250 3793  A 3 3 0 0 0 253 3790 A 3 3 0 0 0 250 3787 L 250 3602  " stroke-width="2" stroke-dasharray="6,2" stroke="#0099cc" fill="none" />
  <path d="M 245.707106781187 3607.10710678119  L 250 3602.81421356237  L 254.292893218813 3607.10710678119  L 255.707106781187 3605.69289321881  L 250.707106781187 3600.69289321881  L 250 3599.98578643763  L 249.292893218813 3600.69289321881  L 244.292893218813 3605.69289321881  L 245.707106781187 3607.10710678119  Z " fill-rule="nonzero" fill="#0099cc" stroke="none" />
</svg>