<?xml version="1.0" encoding="utf-8"?>
<svg version="1.1" xmlns:xlink="http://www.w3.org/1999/xlink" width="20px" height="20px" preserveAspectRatio="xMinYMid meet" viewBox="330 3683  20 18" xmlns="http://www.w3.org/2000/svg">
  <path d="M 610 4120  L 345 4120  A 5 5 0 0 1 340 4115 L 340 4023  A 3 3 0 0 0 343 4020 A 3 3 0 0 0 340 4017 L 340 3933  A 3 3 0 0 0 343 3930 A 3 3 0 0 0 340 3927 L 340 3873  A 3 3 0 0 0 343 3870 A 3 3 0 0 0 340 3867 L 340 3793  A 3 3 0 0 0 343 3790 A 3 3 0 0 0 340 3787 L 340 3692  " stroke-width="2" stroke-dasharray="6,2" stroke="#0099cc" fill="none" />
  <path d="M 335.707106781187 3697.10710678119  L 340 3692.81421356237  L 344.292893218813 3697.10710678119  L 345.707106781187 3695.69289321881  L 340.707106781187 3690.69289321881  L 340 3689.98578643763  L 339.292893218813 3690.69289321881  L 334.292893218813 3695.69289321881  L 335.707106781187 3697.10710678119  Z " fill-rule="nonzero" fill="#0099cc" stroke="none" />
</svg>