<?xml version="1.0" encoding="utf-8"?>
<svg version="1.1" xmlns:xlink="http://www.w3.org/1999/xlink" width="10px" height="545px" preserveAspectRatio="xMidYMin meet" viewBox="456 3950  8 545" xmlns="http://www.w3.org/2000/svg">
  <path d="M 610 4490  L 465 4490  A 5 5 0 0 1 460 4485 L 460 4323  A 3 3 0 0 0 463 4320 A 3 3 0 0 0 460 4317 L 460 4253  A 3 3 0 0 0 463 4250 A 3 3 0 0 0 460 4247 L 460 4123  A 3 3 0 0 0 463 4120 A 3 3 0 0 0 460 4117 L 460 4023  A 3 3 0 0 0 463 4020 A 3 3 0 0 0 460 4017 L 460 3952  " stroke-width="2" stroke-dasharray="6,2" stroke="#0099cc" fill="none" />
  <path d="M 455.707106781187 3957.10710678119  L 460 3952.81421356237  L 464.292893218813 3957.10710678119  L 465.707106781187 3955.69289321881  L 460.707106781187 3950.69289321881  L 460 3949.98578643763  L 459.292893218813 3950.69289321881  L 454.292893218813 3955.69289321881  L 455.707106781187 3957.10710678119  Z " fill-rule="nonzero" fill="#0099cc" stroke="none" />
</svg>