<?xml version="1.0" encoding="utf-8"?>
<svg version="1.1" xmlns:xlink="http://www.w3.org/1999/xlink" width="10px" height="530px" preserveAspectRatio="xMidYMin meet" viewBox="436 3725  8 530" xmlns="http://www.w3.org/2000/svg">
  <path d="M 600 4250  L 445 4250  A 5 5 0 0 1 440 4245 L 440 4123  A 3 3 0 0 0 443 4120 A 3 3 0 0 0 440 4117 L 440 4023  A 3 3 0 0 0 443 4020 A 3 3 0 0 0 440 4017 L 440 3933  A 3 3 0 0 0 443 3930 A 3 3 0 0 0 440 3927 L 440 3873  A 3 3 0 0 0 443 3870 A 3 3 0 0 0 440 3867 L 440 3793  A 3 3 0 0 0 443 3790 A 3 3 0 0 0 440 3787 L 440 3735  A 5 5 0 0 0 435 3730 L 343 3730  A 3 3 0 0 0 340 3727 A 3 3 0 0 0 337 3730 L 292 3730  " stroke-width="2" stroke-dasharray="6,2" stroke="#0099cc" fill="none" />
  <path d="M 297.107106781187 3734.29289321881  L 292.814213562373 3730  L 297.107106781187 3725.70710678119  L 295.692893218813 3724.29289321881  L 290.692893218813 3729.29289321881  L 289.985786437627 3730  L 290.692893218813 3730.70710678119  L 295.692893218813 3735.70710678119  L 297.107106781187 3734.29289321881  Z " fill-rule="nonzero" fill="#0099cc" stroke="none" />
</svg>