<?xml version="1.0" encoding="utf-8"?>
<svg version="1.1" xmlns:xlink="http://www.w3.org/1999/xlink" width="10px" height="515px" preserveAspectRatio="xMidYMin meet" viewBox="466 1560  8 515" xmlns="http://www.w3.org/2000/svg">
  <path d="M 610 2070  L 475 2070  A 5 5 0 0 1 470 2065 L 470 1913  A 3 3 0 0 0 473 1910 A 3 3 0 0 0 470 1907 L 470 1723  A 3 3 0 0 0 473 1720 A 3 3 0 0 0 470 1717 L 470 1562  " stroke-width="2" stroke-dasharray="18,8" stroke="#009dd9" fill="none" />
  <path d="M 465.707106781187 1567.10710678119  L 470 1562.81421356237  L 474.292893218813 1567.10710678119  L 475.707106781187 1565.69289321881  L 470.707106781187 1560.69289321881  L 470 1559.98578643763  L 469.292893218813 1560.69289321881  L 464.292893218813 1565.69289321881  L 465.707106781187 1567.10710678119  Z " fill-rule="nonzero" fill="#009dd9" stroke="none" />
</svg>