<?xml version="1.0" encoding="utf-8"?>
<svg version="1.1" xmlns:xlink="http://www.w3.org/1999/xlink" width="10px" height="10px" xmlns="http://www.w3.org/2000/svg">
  <g transform="matrix(1 0 0 1 -1238 -1963 )">
    <path d="M 1243 1963.5  C 1245.52 1963.5  1247.5 1965.48  1247.5 1968  C 1247.5 1970.52  1245.52 1972.5  1243 1972.5  C 1240.48 1972.5  1238.5 1970.52  1238.5 1968  C 1238.5 1965.48  1240.48 1963.5  1243 1963.5  Z " fill-rule="nonzero" fill="#000000" stroke="none" />
    <path d="M 1243 1963.5  C 1245.52 1963.5  1247.5 1965.48  1247.5 1968  C 1247.5 1970.52  1245.52 1972.5  1243 1972.5  C 1240.48 1972.5  1238.5 1970.52  1238.5 1968  C 1238.5 1965.48  1240.48 1963.5  1243 1963.5  Z " stroke-width="1" stroke-dasharray="3,1" stroke="#009dd9" fill="none" stroke-dashoffset="0.5" />
  </g>
</svg>