<?xml version="1.0" encoding="utf-8"?>
<svg version="1.1" xmlns:xlink="http://www.w3.org/1999/xlink" width="10px" height="565px" preserveAspectRatio="xMidYMin meet" viewBox="436 1690  8 565" xmlns="http://www.w3.org/2000/svg">
  <path d="M 620 2250  L 445 2250  A 5 5 0 0 1 440 2245 L 440 1913  A 3 3 0 0 0 443 1910 A 3 3 0 0 0 440 1907 L 440 1723  A 3 3 0 0 0 443 1720 A 3 3 0 0 0 440 1717 L 440 1692  " stroke-width="2" stroke-dasharray="18,8" stroke="#009dd9" fill="none" />
  <path d="M 435.707106781187 1697.10710678119  L 440 1692.81421356237  L 444.292893218813 1697.10710678119  L 445.707106781187 1695.69289321881  L 440.707106781187 1690.69289321881  L 440 1689.98578643763  L 439.292893218813 1690.69289321881  L 434.292893218813 1695.69289321881  L 435.707106781187 1697.10710678119  Z " fill-rule="nonzero" fill="#009dd9" stroke="none" />
</svg>