<?xml version="1.0" encoding="utf-8"?>
<svg version="1.1" xmlns:xlink="http://www.w3.org/1999/xlink" width="75px" height="30px" xmlns="http://www.w3.org/2000/svg">
  <g transform="matrix(1 0 0 1 -793 -427 )">
    <path d="M 794 437  A 9 9 0 0 1 803 428 L 858 428  A 9 9 0 0 1 867 437 L 867 447  A 9 9 0 0 1 858 456 L 803 456  A 9 9 0 0 1 794 447 L 794 437  Z " fill-rule="nonzero" fill="#ffffff" stroke="none" fill-opacity="0" />
    <path d="M 793.5 437  A 9.5 9.5 0 0 1 803 427.5 L 858 427.5  A 9.5 9.5 0 0 1 867.5 437 L 867.5 447  A 9.5 9.5 0 0 1 858 456.5 L 803 456.5  A 9.5 9.5 0 0 1 793.5 447 L 793.5 437  Z " stroke-width="1" stroke-dasharray="3,1" stroke="#999999" fill="none" stroke-dashoffset="0.5" />
  </g>
</svg>