<?xml version="1.0" encoding="utf-8"?>
<svg version="1.1" xmlns:xlink="http://www.w3.org/1999/xlink" width="75px" height="30px" xmlns="http://www.w3.org/2000/svg">
  <g transform="matrix(1 0 0 1 -793 -329 )">
    <path d="M 794 339  A 9 9 0 0 1 803 330 L 858 330  A 9 9 0 0 1 867 339 L 867 349  A 9 9 0 0 1 858 358 L 803 358  A 9 9 0 0 1 794 349 L 794 339  Z " fill-rule="nonzero" fill="#ffffff" stroke="none" fill-opacity="0" />
    <path d="M 793.5 339  A 9.5 9.5 0 0 1 803 329.5 L 858 329.5  A 9.5 9.5 0 0 1 867.5 339 L 867.5 349  A 9.5 9.5 0 0 1 858 358.5 L 803 358.5  A 9.5 9.5 0 0 1 793.5 349 L 793.5 339  Z " stroke-width="1" stroke-dasharray="3,1" stroke="#ff0000" fill="none" stroke-dashoffset="0.5" />
  </g>
</svg>