<?xml version="1.0" encoding="utf-8"?>
<svg version="1.1" xmlns:xlink="http://www.w3.org/1999/xlink" width="364px" height="47px" xmlns="http://www.w3.org/2000/svg">
  <defs>
    <filter x="0px" y="55px" width="364px" height="47px" filterUnits="userSpaceOnUse" id="filter5">
      <feOffset dx="5" dy="5" in="SourceAlpha" result="shadowOffsetInner" />
      <feGaussianBlur stdDeviation="2.5" in="shadowOffsetInner" result="shadowGaussian" />
      <feComposite in2="shadowGaussian" operator="atop" in="SourceAlpha" result="shadowComposite" />
      <feColorMatrix type="matrix" values="0 0 0 0 0  0 0 0 0 0  0 0 0 0 0  0 0 0 0.349019607843137 0  " in="shadowComposite" />
    </filter>
    <g id="widget6">
      <path d="M 1 65  A 9 9 0 0 1 10 56 L 344 56  A 9 9 0 0 1 353 65 L 353 82  A 9 9 0 0 1 344 91 L 10 91  A 9 9 0 0 1 1 82 L 1 65  Z " fill-rule="nonzero" fill="#cc9933" stroke="none" />
      <path d="M 0.5 65  A 9.5 9.5 0 0 1 10 55.5 L 344 55.5  A 9.5 9.5 0 0 1 353.5 65 L 353.5 82  A 9.5 9.5 0 0 1 344 91.5 L 10 91.5  A 9.5 9.5 0 0 1 0.5 82 L 0.5 65  Z " stroke-width="1" stroke-dasharray="3,1" stroke="#009dd9" fill="none" stroke-dashoffset="0.5" />
    </g>
  </defs>
  <g transform="matrix(1 0 0 1 0 -55 )">
    <use xlink:href="#widget6" filter="url(#filter5)" />
    <use xlink:href="#widget6" />
  </g>
</svg>