<?xml version="1.0" encoding="utf-8"?>
<svg version="1.1" xmlns:xlink="http://www.w3.org/1999/xlink" width="190px" height="50px" xmlns="http://www.w3.org/2000/svg">
  <defs>
    <filter x="100px" y="329px" width="190px" height="50px" filterUnits="userSpaceOnUse" id="filter31">
      <feOffset dx="5" dy="5" in="SourceAlpha" result="shadowOffsetInner" />
      <feGaussianBlur stdDeviation="2.5" in="shadowOffsetInner" result="shadowGaussian" />
      <feComposite in2="shadowGaussian" operator="atop" in="SourceAlpha" result="shadowComposite" />
      <feColorMatrix type="matrix" values="0 0 0 0 0  0 0 0 0 0  0 0 0 0 0  0 0 0 0.349019607843137 0  " in="shadowComposite" />
    </filter>
    <g id="widget32">
      <path d="M 101 339  A 9 9 0 0 1 110 330 L 270 330  A 9 9 0 0 1 279 339 L 279 359  A 9 9 0 0 1 270 368 L 110 368  A 9 9 0 0 1 101 359 L 101 339  Z " fill-rule="nonzero" fill="#cc9933" stroke="none" />
      <path d="M 100.5 339  A 9.5 9.5 0 0 1 110 329.5 L 270 329.5  A 9.5 9.5 0 0 1 279.5 339 L 279.5 359  A 9.5 9.5 0 0 1 270 368.5 L 110 368.5  A 9.5 9.5 0 0 1 100.5 359 L 100.5 339  Z " stroke-width="1" stroke-dasharray="3,1" stroke="#009dd9" fill="none" stroke-dashoffset="0.5" />
    </g>
  </defs>
  <g transform="matrix(1 0 0 1 -100 -329 )">
    <use xlink:href="#widget32" filter="url(#filter31)" />
    <use xlink:href="#widget32" />
  </g>
</svg>