<?xml version="1.0" encoding="utf-8"?>
<svg version="1.1" xmlns:xlink="http://www.w3.org/1999/xlink" width="100px" height="35px" xmlns="http://www.w3.org/2000/svg">
  <g transform="matrix(1 0 0 1 -60 -156 )">
    <path d="M 61 161  A 4 4 0 0 1 65 157 L 155 157  A 4 4 0 0 1 159 161 L 159 186  A 4 4 0 0 1 155 190 L 65 190  A 4 4 0 0 1 61 186 L 61 161  Z " fill-rule="nonzero" fill="#ffffff" stroke="none" fill-opacity="0.847058823529412" />
    <path d="M 60.5 161  A 4.5 4.5 0 0 1 65 156.5 L 155 156.5  A 4.5 4.5 0 0 1 159.5 161 L 159.5 186  A 4.5 4.5 0 0 1 155 190.5 L 65 190.5  A 4.5 4.5 0 0 1 60.5 186 L 60.5 161  Z " stroke-width="1" stroke-dasharray="3,1" stroke="#cccccc" fill="none" stroke-opacity="0.549019607843137" stroke-dashoffset="0.5" />
  </g>
</svg>