<?xml version="1.0" encoding="utf-8"?>
<svg version="1.1" xmlns:xlink="http://www.w3.org/1999/xlink" width="42px" height="35px" xmlns="http://www.w3.org/2000/svg">
  <g transform="matrix(1 0 0 1 -250 -67 )">
    <path d="M 251 72  A 4 4 0 0 1 255 68 L 287 68  A 4 4 0 0 1 291 72 L 291 97  A 4 4 0 0 1 287 101 L 255 101  A 4 4 0 0 1 251 97 L 251 72  Z " fill-rule="nonzero" fill="#d64743" stroke="none" fill-opacity="0.847058823529412" />
    <path d="M 250.5 72  A 4.5 4.5 0 0 1 255 67.5 L 287 67.5  A 4.5 4.5 0 0 1 291.5 72 L 291.5 97  A 4.5 4.5 0 0 1 287 101.5 L 255 101.5  A 4.5 4.5 0 0 1 250.5 97 L 250.5 72  Z " stroke-width="1" stroke-dasharray="3,1" stroke="#cccccc" fill="none" stroke-opacity="0.549019607843137" stroke-dashoffset="0.5" />
  </g>
</svg>