<?xml version="1.0" encoding="utf-8"?>
<svg version="1.1" xmlns:xlink="http://www.w3.org/1999/xlink" width="170px" height="92px" xmlns="http://www.w3.org/2000/svg">
  <g transform="matrix(1 0 0 1 -124 -298 )">
    <path d="M 125 303  A 4 4 0 0 1 129 299 L 289 299  A 4 4 0 0 1 293 303 L 293 385  A 4 4 0 0 1 289 389 L 129 389  A 4 4 0 0 1 125 385 L 125 303  Z " fill-rule="nonzero" fill="#d64743" stroke="none" fill-opacity="0.847058823529412" />
    <path d="M 124.5 303  A 4.5 4.5 0 0 1 129 298.5 L 289 298.5  A 4.5 4.5 0 0 1 293.5 303 L 293.5 385  A 4.5 4.5 0 0 1 289 389.5 L 129 389.5  A 4.5 4.5 0 0 1 124.5 385 L 124.5 303  Z " stroke-width="1" stroke-dasharray="3,1" stroke="#cccccc" fill="none" stroke-opacity="0.549019607843137" stroke-dashoffset="0.5" />
  </g>
</svg>