<?xml version="1.0" encoding="utf-8"?>
<svg version="1.1" xmlns:xlink="http://www.w3.org/1999/xlink" width="152px" height="50px" xmlns="http://www.w3.org/2000/svg">
  <g transform="matrix(1 0 0 1 -60 -453 )">
    <path d="M 61 458  A 4 4 0 0 1 65 454 L 207 454  A 4 4 0 0 1 211 458 L 211 498  A 4 4 0 0 1 207 502 L 65 502  A 4 4 0 0 1 61 498 L 61 458  Z " fill-rule="nonzero" fill="#ffffff" stroke="none" fill-opacity="0.847058823529412" />
    <path d="M 60.5 458  A 4.5 4.5 0 0 1 65 453.5 L 207 453.5  A 4.5 4.5 0 0 1 211.5 458 L 211.5 498  A 4.5 4.5 0 0 1 207 502.5 L 65 502.5  A 4.5 4.5 0 0 1 60.5 498 L 60.5 458  Z " stroke-width="1" stroke-dasharray="3,1" stroke="#cccccc" fill="none" stroke-opacity="0.549019607843137" stroke-dashoffset="0.5" />
  </g>
</svg>