<?xml version="1.0" encoding="utf-8"?>
<svg version="1.1" xmlns:xlink="http://www.w3.org/1999/xlink" width="265px" height="44px" xmlns="http://www.w3.org/2000/svg">
  <g transform="matrix(1 0 0 1 -45 -239 )">
    <path d="M 46 254  A 14 14 0 0 1 60 240 L 295 240  A 14 14 0 0 1 309 254 L 309 268  A 14 14 0 0 1 295 282 L 60 282  A 14 14 0 0 1 46 268 L 46 254  Z " fill-rule="nonzero" fill="#cccccc" stroke="none" fill-opacity="0.486274509803922" />
    <path d="M 45.5 254  A 14.5 14.5 0 0 1 60 239.5 L 295 239.5  A 14.5 14.5 0 0 1 309.5 254 L 309.5 268  A 14.5 14.5 0 0 1 295 282.5 L 60 282.5  A 14.5 14.5 0 0 1 45.5 268 L 45.5 254  Z " stroke-width="1" stroke-dasharray="3,1" stroke="#cccccc" fill="none" stroke-dashoffset="0.5" />
  </g>
</svg>