<?xml version="1.0" encoding="utf-8"?>
<svg version="1.1" xmlns:xlink="http://www.w3.org/1999/xlink" width="64px" height="35px" xmlns="http://www.w3.org/2000/svg">
  <g transform="matrix(1 0 0 1 -230 -236 )">
    <path d="M 231 241  A 4 4 0 0 1 235 237 L 289 237  A 4 4 0 0 1 293 241 L 293 266  A 4 4 0 0 1 289 270 L 235 270  A 4 4 0 0 1 231 266 L 231 241  Z " fill-rule="nonzero" fill="#ff3333" stroke="none" />
    <path d="M 230.5 241  A 4.5 4.5 0 0 1 235 236.5 L 289 236.5  A 4.5 4.5 0 0 1 293.5 241 L 293.5 266  A 4.5 4.5 0 0 1 289 270.5 L 235 270.5  A 4.5 4.5 0 0 1 230.5 266 L 230.5 241  Z " stroke-width="1" stroke-dasharray="3,1" stroke="#cccccc" fill="none" stroke-opacity="0.549019607843137" stroke-dashoffset="0.5" />
  </g>
</svg>