<?xml version="1.0" encoding="utf-8"?>
<svg version="1.1" xmlns:xlink="http://www.w3.org/1999/xlink" width="80px" height="80px" xmlns="http://www.w3.org/2000/svg">
  <g transform="matrix(1 0 0 1 -649 -367 )">
    <path d="M 689 367.5  C 711.12 367.5  728.5 384.88  728.5 407  C 728.5 429.12  711.12 446.5  689 446.5  C 666.88 446.5  649.5 429.12  649.5 407  C 649.5 384.88  666.88 367.5  689 367.5  Z " fill-rule="nonzero" fill="#ffffff" stroke="none" />
    <path d="M 689 367.5  C 711.12 367.5  728.5 384.88  728.5 407  C 728.5 429.12  711.12 446.5  689 446.5  C 666.88 446.5  649.5 429.12  649.5 407  C 649.5 384.88  666.88 367.5  689 367.5  Z " stroke-width="1" stroke-dasharray="3,1" stroke="#cccccc" fill="none" stroke-opacity="0.756862745098039" stroke-dashoffset="0.5" />
  </g>
</svg>