<?xml version="1.0" encoding="utf-8"?>
<svg version="1.1" xmlns:xlink="http://www.w3.org/1999/xlink" width="90px" height="90px" xmlns="http://www.w3.org/2000/svg">
  <defs>
    <filter x="644px" y="367px" width="90px" height="90px" filterUnits="userSpaceOnUse" id="filter3">
      <feOffset dx="5" dy="5" in="SourceAlpha" result="shadowOffsetInner" />
      <feGaussianBlur stdDeviation="2.5" in="shadowOffsetInner" result="shadowGaussian" />
      <feComposite in2="shadowGaussian" operator="atop" in="SourceAlpha" result="shadowComposite" />
      <feColorMatrix type="matrix" values="0 0 0 0 0  0 0 0 0 0  0 0 0 0 0  0 0 0 0.349019607843137 0  " in="shadowComposite" />
    </filter>
    <g id="widget4">
      <path d="M 684 367.5  C 706.12 367.5  723.5 384.88  723.5 407  C 723.5 429.12  706.12 446.5  684 446.5  C 661.88 446.5  644.5 429.12  644.5 407  C 644.5 384.88  661.88 367.5  684 367.5  Z " fill-rule="nonzero" fill="#cc9933" stroke="none" />
      <path d="M 684 367.5  C 706.12 367.5  723.5 384.88  723.5 407  C 723.5 429.12  706.12 446.5  684 446.5  C 661.88 446.5  644.5 429.12  644.5 407  C 644.5 384.88  661.88 367.5  684 367.5  Z " stroke-width="1" stroke-dasharray="3,1" stroke="#009dd9" fill="none" stroke-dashoffset="0.5" />
    </g>
  </defs>
  <g transform="matrix(1 0 0 1 -644 -367 )">
    <use xlink:href="#widget4" filter="url(#filter3)" />
    <use xlink:href="#widget4" />
  </g>
</svg>