<?xml version="1.0" encoding="utf-8"?>
<svg version="1.1" xmlns:xlink="http://www.w3.org/1999/xlink" width="25px" height="10px" preserveAspectRatio="xMinYMid meet" viewBox="510 2546  25 8" xmlns="http://www.w3.org/2000/svg">
  <path d="M 620 1770  L 535 1770  A 5 5 0 0 0 530 1775 L 530 1897  A 3 3 0 0 1 533 1900 A 3 3 0 0 1 530 1903 L 530 2057  A 3 3 0 0 1 533 2060 A 3 3 0 0 1 530 2063 L 530 2137  A 3 3 0 0 1 533 2140 A 3 3 0 0 1 530 2143 L 530 2327  A 3 3 0 0 1 533 2330 A 3 3 0 0 1 530 2333 L 530 2545  A 5 5 0 0 1 525 2550 L 512 2550  " stroke-width="2" stroke-dasharray="18,8" stroke="#009dd9" fill="none" />
  <path d="M 517.107106781187 2554.29289321881  L 512.814213562373 2550  L 517.107106781187 2545.70710678119  L 515.692893218813 2544.29289321881  L 510.692893218813 2549.29289321881  L 509.985786437627 2550  L 510.692893218813 2550.70710678119  L 515.692893218813 2555.70710678119  L 517.107106781187 2554.29289321881  Z " fill-rule="nonzero" fill="#009dd9" stroke="none" />
</svg>