<?xml version="1.0" encoding="utf-8"?>
<svg version="1.1" xmlns:xlink="http://www.w3.org/1999/xlink" width="10px" height="370px" preserveAspectRatio="xMidYMin meet" viewBox="556 1965  8 370" xmlns="http://www.w3.org/2000/svg">
  <path d="M 620 1970  L 565 1970  A 5 5 0 0 0 560 1975 L 560 2057  A 3 3 0 0 1 563 2060 A 3 3 0 0 1 560 2063 L 560 2137  A 3 3 0 0 1 563 2140 A 3 3 0 0 1 560 2143 L 560 2325  A 5 5 0 0 1 555 2330 L 502 2330  " stroke-width="2" stroke-dasharray="18,8" stroke="#009dd9" fill="none" />
  <path d="M 507.107106781187 2334.29289321881  L 502.814213562373 2330  L 507.107106781187 2325.70710678119  L 505.692893218813 2324.29289321881  L 500.692893218813 2329.29289321881  L 499.985786437627 2330  L 500.692893218813 2330.70710678119  L 505.692893218813 2335.70710678119  L 507.107106781187 2334.29289321881  Z " fill-rule="nonzero" fill="#009dd9" stroke="none" />
</svg>