<?xml version="1.0" encoding="utf-8"?>
<svg version="1.1" xmlns:xlink="http://www.w3.org/1999/xlink" width="27px" height="28px" xmlns="http://www.w3.org/2000/svg">
  <defs>
    <filter x="841px" y="371px" width="27px" height="28px" filterUnits="userSpaceOnUse" id="filter7">
      <feOffset dx="5" dy="5" in="SourceAlpha" result="shadowOffsetInner" />
      <feGaussianBlur stdDeviation="2.5" in="shadowOffsetInner" result="shadowGaussian" />
      <feComposite in2="shadowGaussian" operator="atop" in="SourceAlpha" result="shadowComposite" />
      <feColorMatrix type="matrix" values="0 0 0 0 0  0 0 0 0 0  0 0 0 0 0  0 0 0 0.349019607843137 0  " in="shadowComposite" />
    </filter>
    <g id="widget8">
      <path d="M 849.5 371.5  C 853.98 371.5  857.5 375.24  857.5 380  C 857.5 384.76  853.98 388.5  849.5 388.5  C 845.02 388.5  841.5 384.76  841.5 380  C 841.5 375.24  845.02 371.5  849.5 371.5  Z " fill-rule="nonzero" fill="#cc9933" stroke="none" />
      <path d="M 849.5 371.5  C 853.98 371.5  857.5 375.24  857.5 380  C 857.5 384.76  853.98 388.5  849.5 388.5  C 845.02 388.5  841.5 384.76  841.5 380  C 841.5 375.24  845.02 371.5  849.5 371.5  Z " stroke-width="1" stroke-dasharray="3,1" stroke="#009dd9" fill="none" stroke-dashoffset="0.5" />
    </g>
  </defs>
  <g transform="matrix(1 0 0 1 -841 -371 )">
    <use xlink:href="#widget8" filter="url(#filter7)" />
    <use xlink:href="#widget8" />
  </g>
</svg>